<svg xmlns="http://www.w3.org/2000/svg" viewBox="0 0 137.46 136.77"><defs><style>.a{fill:#3369b3;}.b{fill:none;stroke:#3369b3;stroke-linecap:round;stroke-linejoin:round;stroke-width:2.5px;}</style></defs><title>CPS-logo-main</title><rect class="a" x="153.48" y="157.02" width="35.48" height="35.48" transform="translate(230.44 252.33) rotate(180)"/><rect class="a" x="112" y="157.02" width="35.48" height="35.48" transform="translate(147.48 252.33) rotate(180)"/><rect class="a" x="153.48" y="116.65" width="35.48" height="35.48" transform="translate(230.44 171.59) rotate(180)"/><polygon class="b" points="127.03 45.66 107.51 36.01 117.57 1.25 136.21 16.18 127.03 45.66"/><polygon class="b" points="127.03 45.66 107.51 36.01 80.63 31.22 102.53 40.9 127.03 45.66"/><polygon class="b" points="80.63 31.22 107.51 36.01 117.57 1.25 89.96 1.81 80.63 31.22"/><rect class="a" x="112" y="116.65" width="35.48" height="35.48" transform="translate(147.48 171.59) rotate(180)"/><rect class="a" x="194.74" y="157.02" width="35.48" height="35.48" transform="translate(312.95 252.33) rotate(180)"/><rect class="a" x="153.48" y="198.47" width="35.48" height="35.48" transform="translate(230.44 335.24) rotate(180)"/><rect class="a" x="112" y="198.47" width="35.48" height="35.48" transform="translate(147.48 335.24) rotate(180)"/><rect class="a" x="194.74" y="198.47" width="35.48" height="35.48" transform="translate(312.95 335.24) rotate(180)"/></svg>