<svg xmlns="http://www.w3.org/2000/svg" viewBox="0 0 137.46 136.77"><defs><style>.a{fill:#1a2631;}.b{fill:none;stroke:#1a2631;stroke-linecap:round;stroke-linejoin:round;stroke-width:2.5px;}</style></defs><title>CPS-logo-dark</title><rect class="a" x="292.48" y="232.02" width="35.48" height="35.48" transform="translate(369.44 327.33) rotate(180)"/><rect class="a" x="251" y="232.02" width="35.48" height="35.48" transform="translate(286.48 327.33) rotate(180)"/><rect class="a" x="292.48" y="191.65" width="35.48" height="35.48" transform="translate(369.44 246.59) rotate(180)"/><polygon class="b" points="127.03 45.66 107.51 36.01 117.57 1.25 136.21 16.18 127.03 45.66"/><polygon class="b" points="127.03 45.66 107.51 36.01 80.63 31.22 102.53 40.9 127.03 45.66"/><polygon class="b" points="80.63 31.22 107.51 36.01 117.57 1.25 89.96 1.81 80.63 31.22"/><rect class="a" x="251" y="191.65" width="35.48" height="35.48" transform="translate(286.48 246.59) rotate(180)"/><rect class="a" x="333.74" y="232.02" width="35.48" height="35.48" transform="translate(451.95 327.33) rotate(180)"/><rect class="a" x="292.48" y="273.47" width="35.48" height="35.48" transform="translate(369.44 410.24) rotate(180)"/><rect class="a" x="251" y="273.47" width="35.48" height="35.48" transform="translate(286.48 410.24) rotate(180)"/><rect class="a" x="333.74" y="273.47" width="35.48" height="35.48" transform="translate(451.95 410.24) rotate(180)"/></svg>