<svg xmlns="http://www.w3.org/2000/svg" viewBox="0 0 158 158"><defs><style>.a{fill:#1a2631;}.b{fill:none;stroke:#1a2631;stroke-linecap:round;stroke-linejoin:round;stroke-width:2.5px;}</style></defs><title>Icon dark</title><rect class="a" x="61.48" y="60.59" width="35.48" height="35.48" transform="translate(158.44 156.65) rotate(180)"/><rect class="a" x="20" y="60.59" width="35.48" height="35.48" transform="translate(75.48 156.65) rotate(180)"/><rect class="a" x="61.48" y="20.21" width="35.48" height="35.48" transform="translate(158.44 75.9) rotate(180)"/><polygon class="b" points="147.03 46.41 127.51 36.76 137.57 2 156.21 16.93 147.03 46.41"/><polygon class="b" points="147.03 46.41 127.51 36.76 100.63 31.97 122.53 41.65 147.03 46.41"/><polygon class="b" points="100.63 31.97 127.51 36.76 137.57 2 109.96 2.56 100.63 31.97"/><rect class="a" x="20" y="20.21" width="35.48" height="35.48" transform="translate(75.48 75.9) rotate(180)"/><rect class="a" x="102.74" y="60.59" width="35.48" height="35.48" transform="translate(240.95 156.65) rotate(180)"/><rect class="a" x="61.48" y="102.04" width="35.48" height="35.48" transform="translate(158.44 239.55) rotate(180)"/><rect class="a" x="20" y="102.04" width="35.48" height="35.48" transform="translate(75.48 239.55) rotate(180)"/><rect class="a" x="102.74" y="102.04" width="35.48" height="35.48" transform="translate(240.95 239.55) rotate(180)"/></svg>